<svg xmlns="http://www.w3.org/2000/svg" xmlns:xlink="http://www.w3.org/1999/xlink" viewBox="0 0 16.191 24.868">
  <defs>
    <style>
      .cls-1 {
        fill: url(#linear-gradient);
      }
    </style>
    <linearGradient id="linear-gradient" x1="0.5" x2="2.087" y2="1" gradientUnits="objectBoundingBox">
      <stop offset="0" stop-color="#6c2a21"/>
      <stop offset="1" stop-color="#9b3a2e"/>
    </linearGradient>
  </defs>
  <g id="doorway" transform="translate(-89.326 0)">
    <g id="Group_216" data-name="Group 216" transform="translate(94.437 12.893)">
      <g id="Group_215" data-name="Group 215">
        <path id="Path_12" data-name="Path 12" class="cls-1" d="M196.445,265.452h-1.467a.429.429,0,1,0,0,.858h1.467a.429.429,0,1,0,0-.858Z" transform="translate(-194.549 -265.452)"/>
      </g>
    </g>
    <g id="Group_218" data-name="Group 218" transform="translate(89.326 0)">
      <g id="Group_217" data-name="Group 217" transform="translate(0 0)">
        <path id="Path_13" data-name="Path 13" class="cls-1" d="M105.088,1.245H98.759V.429a.429.429,0,0,0-.54-.414L89.644,2.3a.429.429,0,0,0-.318.415V4.1a.429.429,0,1,0,.858,0V3.045L97.9.987V23.915l-7.717-1.543V5.547a.429.429,0,1,0-.858,0V22.724a.429.429,0,0,0,.345.421l8.575,1.715a.429.429,0,0,0,.513-.421v-.816h3.954a.429.429,0,0,0,0-.858H98.759V21.54h4.246a.429.429,0,0,0,.429-.429V3.757a.429.429,0,0,0-.429-.429H98.759V2.1h5.9v20.66h-.612a.429.429,0,0,0,0,.858h1.041a.429.429,0,0,0,.429-.429V1.674A.429.429,0,0,0,105.088,1.245Zm-2.511,2.94v16.5H98.759V4.186Z" transform="translate(-89.326 0)"/>
      </g>
    </g>
  </g>
</svg>
