<svg xmlns="http://www.w3.org/2000/svg" xmlns:xlink="http://www.w3.org/1999/xlink" viewBox="0 0 21.906 21.319">
  <defs>
    <style>
      .cls-1 {
        fill: url(#linear-gradient);
      }
    </style>
    <linearGradient id="linear-gradient" x1="0.5" x2="2.087" y2="1" gradientUnits="objectBoundingBox">
      <stop offset="0" stop-color="#6c2a21"/>
      <stop offset="1" stop-color="#9b3a2e"/>
    </linearGradient>
  </defs>
  <g id="man-in-office-desk-with-computer" transform="translate(0 -0.76)">
    <path id="Path_5" data-name="Path 5" class="cls-1" d="M8.053,9.38c-.069,0-.292.2-.292.2C7.881,9.628,8.122,9.376,8.053,9.38Zm.03-.039-.018.011.017-.007S8.083,9.343,8.083,9.341ZM16.342.76A2.24,2.24,0,1,1,14.1,3,2.24,2.24,0,0,1,16.342.76Zm-13.447,9.6h.6v-.289h-.6a.435.435,0,0,1-.325-.089.128.128,0,0,1-.019-.1l.007-1.742H2.27V9.826a.412.412,0,0,0,.066.329A.654.654,0,0,0,2.894,10.364Zm18.973,4.094-.081-.66a33.3,33.3,0,0,1-.21-7.225A.289.289,0,0,0,21,6.557a33.728,33.728,0,0,0,.215,7.311l.082.662c.084.634.01,1.073-.206,1.242-.251.194-.691.022-.721.009-2.122-.653-4.766.7-4.877.752a.288.288,0,0,0,.133.544.276.276,0,0,0,.132-.032,9.4,9.4,0,0,1,2.537-.809v4.492h-1.2a.442.442,0,1,0,0,.883h3.4a.442.442,0,1,0,0-.883h-1.1V16.186a3.457,3.457,0,0,1,.78.137,1.383,1.383,0,0,0,1.266-.093C21.838,15.924,21.983,15.327,21.868,14.458ZM20.5,13.148c-.05-1.9-.672-3.717-.721-5.607-.072-2.752-4.289-2.814-4.323-.13a22.556,22.556,0,0,1-4.867.343c-1.489-.07-1.494,2.237-.015,2.306A24.56,24.56,0,0,0,15.7,9.7a28.741,28.741,0,0,1,.446,3.036c-3.512,1.227-5.458,4.2-5.955,7.976,0,.026,0,.054-.007.081V12.43H12.4V10.453H4.457a.674.674,0,0,0,.008-.091c0-.022,0-.046,0-.073.01-.167.039-.224.2-.256a.775.775,0,0,1,.146-.009v.139H6.949a1.012,1.012,0,0,0,.181.02.249.249,0,0,0,.212-.082.194.194,0,0,0,.024-.119.183.183,0,0,1,.02-.109.215.215,0,0,1,.132-.066.591.591,0,0,0-.072.273H9.861c0-.464-.541-.841-1.207-.841a1.609,1.609,0,0,0-.571.1c.04.4-.334.359-.479.33-.017.021-.032.044-.046.066a.1.1,0,0,0-.019-.006.284.284,0,0,0-.206.1.23.23,0,0,0-.036.154.16.16,0,0,1-.009.076.172.172,0,0,1-.133.049V9.775H4.818v.176a.854.854,0,0,0-.159.013c-.207.04-.249.135-.26.32,0,.028,0,.052,0,.074a.476.476,0,0,1-.009.094H0v1.977H1.205v9.589h8.98v-.96c.146,1.477,2.668,1.342,2.89-.349a6.076,6.076,0,0,1,4.954-5.519A2.011,2.011,0,0,0,20.5,13.148ZM3.257,3.944,3.62,9.12l-.959.067L2.3,4.012Z"/>
  </g>
</svg>
