<svg xmlns="http://www.w3.org/2000/svg" viewBox="0 0 22.566 26.902">
  <defs>
    <style>
      .cls-1 {
        fill: #6c2a21;
      }
    </style>
  </defs>
  <g id="visa" transform="translate(-17.046 0)">
    <g id="Group_265" data-name="Group 265" transform="translate(22.086 0)">
      <g id="Group_264" data-name="Group 264" transform="translate(0 0)">
        <path id="Path_25" data-name="Path 25" class="cls-1" d="M72.743,1.911,58.872.015a1.684,1.684,0,0,0-1.894,1.439l-.3,2.215a.434.434,0,0,0,.86.117l.3-2.215a.815.815,0,0,1,.916-.7l13.872,1.9a.815.815,0,0,1,.7.916L70.6,23.581a.816.816,0,0,1-.916.7l-.927-.127a.434.434,0,0,0-.118.86l.927.127A1.681,1.681,0,0,0,71.464,23.7L74.182,3.8A1.684,1.684,0,0,0,72.743,1.911Z" transform="translate(-56.671 0)"/>
      </g>
    </g>
    <g id="Group_267" data-name="Group 267" transform="translate(17.046 3.46)">
      <g id="Group_266" data-name="Group 266" transform="translate(0)">
        <path id="Path_26" data-name="Path 26" class="cls-1" d="M32.729,27.2h-14a1.684,1.684,0,0,0-1.682,1.682V48.965a1.684,1.684,0,0,0,1.682,1.682h14a1.684,1.684,0,0,0,1.682-1.682V28.887A1.684,1.684,0,0,0,32.729,27.2Zm.814,21.76a.815.815,0,0,1-.814.814h-14a.815.815,0,0,1-.814-.814V28.887a.815.815,0,0,1,.814-.814h14a.815.815,0,0,1,.814.814V48.965Z" transform="translate(-17.046 -27.205)"/>
      </g>
    </g>
    <g id="Group_269" data-name="Group 269" transform="translate(20.519 21.258)">
      <g id="Group_268" data-name="Group 268">
        <path id="Path_27" data-name="Path 27" class="cls-1" d="M53.9,167.153H44.787a.434.434,0,0,0,0,.868H53.9a.434.434,0,0,0,0-.868Z" transform="translate(-44.353 -167.153)"/>
      </g>
    </g>
    <g id="Group_271" data-name="Group 271" transform="translate(20.519 23.429)">
      <g id="Group_270" data-name="Group 270">
        <path id="Path_28" data-name="Path 28" class="cls-1" d="M49.562,184.22H44.787a.434.434,0,1,0,0,.868h4.775a.434.434,0,0,0,0-.868Z" transform="translate(-44.353 -184.22)"/>
      </g>
    </g>
    <g id="Group_273" data-name="Group 273" transform="translate(18.348 7.801)">
      <g id="Group_272" data-name="Group 272" transform="translate(0)">
        <path id="Path_29" data-name="Path 29" class="cls-1" d="M41.612,61.34H27.721a.434.434,0,0,0-.434.434v8.682a.434.434,0,0,0,.434.434H41.613a.434.434,0,0,0,.434-.434V61.774A.434.434,0,0,0,41.612,61.34Zm-.434,8.682H28.155V62.208H41.178Z" transform="translate(-27.287 -61.34)"/>
      </g>
    </g>
    <g id="Group_275" data-name="Group 275" transform="translate(18.348 7.801)">
      <g id="Group_274" data-name="Group 274" transform="translate(0)">
        <path id="Path_30" data-name="Path 30" class="cls-1" d="M33.8,61.34H27.721a.434.434,0,0,0-.434.434v5.209a.434.434,0,0,0,.434.434H33.8a.434.434,0,0,0,.434-.434V61.774A.434.434,0,0,0,33.8,61.34Zm-.434,5.209H28.155V62.208h5.209Z" transform="translate(-27.287 -61.34)"/>
      </g>
    </g>
    <g id="Group_277" data-name="Group 277" transform="translate(19.651 9.144)">
      <g id="Group_276" data-name="Group 276" transform="translate(0)">
        <path id="Path_31" data-name="Path 31" class="cls-1" d="M41.07,73.182a.434.434,0,0,0-.413-.3h-.335a.521.521,0,0,1-.5-.361l-.1-.319a.434.434,0,0,0-.826,0l-.1.319a.521.521,0,0,1-.5.361h-.335a.434.434,0,0,0-.255.785l.271.2a.521.521,0,0,1,.189.584l-.1.319a.434.434,0,0,0,.668.485l.271-.2a.521.521,0,0,1,.614,0l.271.2a.434.434,0,0,0,.668-.485l-.1-.319a.521.521,0,0,1,.19-.584l.271-.2A.434.434,0,0,0,41.07,73.182Zm-1.5.928a1.395,1.395,0,0,0-.518,0,1.383,1.383,0,0,0-.16-.493,1.385,1.385,0,0,0,.419-.3,1.386,1.386,0,0,0,.419.3A1.388,1.388,0,0,0,39.568,74.11Z" transform="translate(-37.527 -71.903)"/>
      </g>
    </g>
    <g id="Group_279" data-name="Group 279" transform="translate(24.426 9.537)">
      <g id="Group_278" data-name="Group 278">
        <path id="Path_32" data-name="Path 32" class="cls-1" d="M83.321,74.993H75.507a.434.434,0,0,0,0,.868h7.814a.434.434,0,0,0,0-.868Z" transform="translate(-75.073 -74.993)"/>
      </g>
    </g>
    <g id="Group_281" data-name="Group 281" transform="translate(24.426 11.274)">
      <g id="Group_280" data-name="Group 280">
        <path id="Path_33" data-name="Path 33" class="cls-1" d="M83.321,88.647H75.507a.434.434,0,0,0,0,.868h7.814a.434.434,0,0,0,0-.868Z" transform="translate(-75.073 -88.647)"/>
      </g>
    </g>
    <g id="Group_283" data-name="Group 283" transform="translate(24.426 13.01)">
      <g id="Group_282" data-name="Group 282">
        <path id="Path_34" data-name="Path 34" class="cls-1" d="M83.321,102.3H75.507a.434.434,0,0,0,0,.868h7.814a.434.434,0,1,0,0-.868Z" transform="translate(-75.073 -102.3)"/>
      </g>
    </g>
    <g id="Group_285" data-name="Group 285" transform="translate(18.348 14.747)">
      <g id="Group_284" data-name="Group 284" transform="translate(0)">
        <path id="Path_35" data-name="Path 35" class="cls-1" d="M41.612,115.953H27.721a.434.434,0,0,0,0,.868H41.613a.434.434,0,1,0,0-.868Z" transform="translate(-27.287 -115.953)"/>
      </g>
    </g>
  </g>
</svg>
