<svg xmlns="http://www.w3.org/2000/svg" xmlns:xlink="http://www.w3.org/1999/xlink" viewBox="0 0 29.172 17.624">
  <defs>
    <style>
      .cls-1 {
        fill: url(#linear-gradient);
      }
    </style>
    <linearGradient id="linear-gradient" x1="0.5" x2="2.087" y2="1" gradientUnits="objectBoundingBox">
      <stop offset="0" stop-color="#6c2a21"/>
      <stop offset="1" stop-color="#9b3a2e"/>
    </linearGradient>
  </defs>
  <g id="visa-logo" transform="translate(0 -88.908)">
    <g id="Group_214" data-name="Group 214" transform="translate(0 88.908)">
      <path id="Path_6" data-name="Path 6" class="cls-1" d="M27.922,88.908H1.25A1.25,1.25,0,0,0,0,90.158v15.124a1.25,1.25,0,0,0,1.25,1.25H27.922a1.25,1.25,0,0,0,1.25-1.25V90.158A1.25,1.25,0,0,0,27.922,88.908Zm-.813,15.561H2.062v-13.5H27.11v13.5Z" transform="translate(0 -88.908)"/>
      <path id="Path_7" data-name="Path 7" class="cls-1" d="M289.986,181.793a.2.2,0,0,0,.163.088h1.4a.2.2,0,0,0,.182-.126c.172-.453.282-.742.318-.835h2.234c.04.17.138.62.179.805a.2.2,0,0,0,.19.153h1.219a.195.195,0,0,0,.19-.237l-1.326-6.006a.2.2,0,0,0-.19-.153h-1.191a.865.865,0,0,0-.914.531l-2.469,5.591A.2.2,0,0,0,289.986,181.793Zm3.491-4.582.118.553.4,1.847H292.55Z" transform="translate(-271.123 -169.863)"/>
      <path id="Path_8" data-name="Path 8" class="cls-1" d="M215.5,181.616a5.714,5.714,0,0,0,1.718.268h0c1.766,0,2.915-.828,2.927-2.108.007-.7-.442-1.236-1.408-1.673-.591-.287-.953-.478-.95-.77,0-.263.331-.528.967-.528h.051a3.065,3.065,0,0,1,1.136.21.195.195,0,0,0,.262-.149l.158-.927a.2.2,0,0,0-.133-.218,4.456,4.456,0,0,0-1.346-.2c-1.664,0-2.833.837-2.842,2.035-.011.887.836,1.382,1.474,1.677.654.3.874.495.871.765,0,.414-.524.6-1.006.6a3.552,3.552,0,0,1-1.576-.32.195.195,0,0,0-.267.147l-.167.976A.2.2,0,0,0,215.5,181.616Z" transform="translate(-201.384 -169.891)"/>
      <path id="Path_9" data-name="Path 9" class="cls-1" d="M65.258,175.587a5.689,5.689,0,0,1,2.64,1.843.195.195,0,0,0,.346-.158l-.325-1.536,0-.01a.712.712,0,0,0-.754-.515h-.008l-1.831,0h0a.195.195,0,0,0-.066.378Z" transform="translate(-60.9 -169.604)"/>
      <path id="Path_10" data-name="Path 10" class="cls-1" d="M170.493,181.717a.2.2,0,0,0,.149.069h1.349a.2.2,0,0,0,.192-.162l1.025-6.01a.195.195,0,0,0-.192-.228h-1.35a.2.2,0,0,0-.192.162l-1.024,6.01A.2.2,0,0,0,170.493,181.717Z" transform="translate(-159.378 -169.771)"/>
      <path id="Path_11" data-name="Path 11" class="cls-1" d="M83.671,176.847a.195.195,0,0,0-.306.209l1.364,4.662a.2.2,0,0,0,.187.14h0l1.571,0a.2.2,0,0,0,.179-.118l2.579-6a.195.195,0,0,0-.179-.272H87.648a.2.2,0,0,0-.181.124l-1.66,4.24-.179-.646a.182.182,0,0,0-.009-.025A6.636,6.636,0,0,0,83.671,176.847Z" transform="translate(-77.943 -169.846)"/>
    </g>
  </g>
</svg>
